<svg width="45" height="49" viewBox="0 0 45 49" fill="none" xmlns="http://www.w3.org/2000/svg">
<path d="M22.9888 12.4022C22.8579 12.277 22.6838 12.2072 22.5028 12.2072C22.3217 12.2072 22.1476 12.277 22.0167 12.4022L5.83606 27.8595C5.76734 27.9252 5.71267 28.0042 5.67536 28.0917C5.63805 28.1792 5.61886 28.2733 5.61897 28.3684L5.61633 42.8756C5.61633 43.6216 5.91265 44.3369 6.4401 44.8644C6.96754 45.3918 7.68291 45.6881 8.42883 45.6881H16.8751C17.2481 45.6881 17.6058 45.54 17.8695 45.2762C18.1332 45.0125 18.2814 44.6548 18.2814 44.2819V32.3288C18.2814 32.1423 18.3554 31.9634 18.4873 31.8316C18.6192 31.6997 18.798 31.6256 18.9845 31.6256H26.0157C26.2022 31.6256 26.3811 31.6997 26.5129 31.8316C26.6448 31.9634 26.7189 32.1423 26.7189 32.3288V44.2819C26.7189 44.6548 26.867 45.0125 27.1308 45.2762C27.3945 45.54 27.7522 45.6881 28.1251 45.6881H36.5679C37.3138 45.6881 38.0292 45.3918 38.5566 44.8644C39.0841 44.3369 39.3804 43.6216 39.3804 42.8756V28.3684C39.3805 28.2733 39.3613 28.1792 39.324 28.0917C39.2867 28.0042 39.232 27.9252 39.1633 27.8595L22.9888 12.4022Z" fill="#2867A1"/>
<path d="M43.1464 24.9585L36.5722 18.6691V9.125C36.5722 8.75204 36.424 8.39436 36.1603 8.13063C35.8966 7.86691 35.5389 7.71875 35.1659 7.71875H30.9472C30.5742 7.71875 30.2165 7.86691 29.9528 8.13063C29.6891 8.39436 29.5409 8.75204 29.5409 9.125V11.9375L24.4503 7.07012C23.974 6.58848 23.2656 6.3125 22.5 6.3125C21.7371 6.3125 21.0305 6.58848 20.5541 7.071L1.8598 24.9568C1.31312 25.4841 1.24456 26.3516 1.74203 26.9229C1.86695 27.0671 2.0199 27.1844 2.19158 27.2676C2.36327 27.3508 2.55009 27.3982 2.74067 27.4069C2.93126 27.4156 3.12163 27.3855 3.30019 27.3183C3.47875 27.2511 3.64177 27.1482 3.77933 27.016L22.0166 9.58907C22.1475 9.46389 22.3216 9.39403 22.5027 9.39403C22.6837 9.39403 22.8578 9.46389 22.9887 9.58907L41.2278 27.016C41.4964 27.2737 41.8563 27.4143 42.2285 27.4071C42.6007 27.3998 42.9548 27.2453 43.2132 26.9774C43.7529 26.4184 43.708 25.4955 43.1464 24.9585Z" fill="#2867A1"/>
<path d="M22.9888 8.90219C22.8579 8.77702 22.6838 8.70715 22.5028 8.70715C22.3217 8.70715 22.1476 8.77702 22.0167 8.90219L5.83606 24.3595C5.76734 24.4252 5.71267 24.5042 5.67536 24.5917C5.63805 24.6792 5.61886 24.7733 5.61897 24.8684L5.61633 39.3756C5.61633 40.1216 5.91265 40.8369 6.44009 41.3644C6.96754 41.8918 7.68291 42.1881 8.42883 42.1881H16.8751C17.2481 42.1881 17.6058 42.04 17.8695 41.7763C18.1332 41.5125 18.2814 41.1548 18.2814 40.7819V28.8288C18.2814 28.6423 18.3555 28.4634 18.4873 28.3316C18.6192 28.1997 18.798 28.1256 18.9845 28.1256H26.0157C26.2022 28.1256 26.3811 28.1997 26.5129 28.3316C26.6448 28.4634 26.7189 28.6423 26.7189 28.8288V40.7819C26.7189 41.1548 26.867 41.5125 27.1308 41.7763C27.3945 42.04 27.7522 42.1881 28.1251 42.1881H36.5679C37.3138 42.1881 38.0292 41.8918 38.5566 41.3644C39.0841 40.8369 39.3804 40.1216 39.3804 39.3756V24.8684C39.3805 24.7733 39.3613 24.6792 39.324 24.5917C39.2867 24.5042 39.232 24.4252 39.1633 24.3595L22.9888 8.90219Z" fill="white"/>
<path d="M43.1464 21.4585L36.5722 15.1691V5.625C36.5722 5.25204 36.424 4.89436 36.1603 4.63063C35.8966 4.36691 35.5389 4.21875 35.1659 4.21875H30.9472C30.5742 4.21875 30.2165 4.36691 29.9528 4.63063C29.6891 4.89436 29.5409 5.25204 29.5409 5.625V8.43751L24.4503 3.57012C23.974 3.08848 23.2656 2.8125 22.5 2.8125C21.7371 2.8125 21.0305 3.08848 20.5541 3.571L1.8598 21.4568C1.31312 21.9841 1.24456 22.8516 1.74203 23.4229C1.86695 23.5671 2.0199 23.6844 2.19158 23.7676C2.36327 23.8508 2.55009 23.8982 2.74067 23.9069C2.93126 23.9156 3.12163 23.8855 3.30019 23.8183C3.47875 23.7511 3.64177 23.6482 3.77933 23.516L22.0166 6.08907C22.1475 5.96389 22.3216 5.89403 22.5027 5.89403C22.6837 5.89403 22.8578 5.96389 22.9887 6.08907L41.2278 23.516C41.4964 23.7737 41.8563 23.9143 42.2285 23.9071C42.6007 23.8998 42.9548 23.7453 43.2132 23.4774C43.7529 22.9184 43.708 21.9955 43.1464 21.4585Z" fill="white"/>
</svg>
