<svg width="65" height="65" viewBox="0 0 65 65" fill="none" xmlns="http://www.w3.org/2000/svg">
<g clip-path="url(#clip0_2092_921)">
<path fill-rule="evenodd" clip-rule="evenodd" d="M7.125 15.8799C7.125 14.4309 7.70059 13.0413 8.72515 12.0168C9.74971 10.9922 11.1393 10.4166 12.5882 10.4166H18.0515C19.0458 10.4166 19.98 10.6816 20.7831 11.1487C21.6131 10.668 22.5556 10.4154 23.5147 10.4166H28.978C30.9639 10.4166 32.7039 11.4765 33.66 13.0636C34.2336 12.6047 34.9056 12.255 35.6596 12.0529L40.9371 10.6406C41.6301 10.4547 42.353 10.4072 43.0644 10.5007C43.7759 10.5942 44.4619 10.8269 45.0834 11.1856C45.7049 11.5443 46.2496 12.0219 46.6865 12.5911C47.1233 13.1603 47.4438 13.81 47.6295 14.5031L58.9385 56.7204C59.1244 57.4135 59.1719 58.1363 59.0784 58.8478C58.9849 59.5592 58.7522 60.2453 58.3935 60.8667C58.0348 61.4882 57.5572 62.0329 56.988 62.4698C56.4188 62.9067 55.769 63.2271 55.0759 63.4129L49.7984 64.8251C49.1054 65.011 48.3825 65.0586 47.6711 64.9651C46.9596 64.8716 46.2736 64.6388 45.6521 64.2802C45.0306 63.9215 44.4859 63.4439 44.049 62.8747C43.6122 62.3054 43.2917 61.6557 43.106 60.9626L34.4412 28.6174V59.5859C34.4412 61.0348 33.8657 62.4244 32.8411 63.449C31.8165 64.4735 30.4269 65.0491 28.978 65.0491H23.5147C22.5556 65.0504 21.6131 64.7978 20.7831 64.317C19.9531 64.7978 19.0107 65.0504 18.0515 65.0491H12.5882C11.1393 65.0491 9.74971 64.4735 8.72515 63.449C7.70059 62.4244 7.125 61.0348 7.125 59.5859V15.8799ZM12.5882 15.8799H18.0515V59.5859H12.5882V15.8799ZM28.978 59.5859H23.5147V15.8799H28.978V59.5859ZM37.0745 17.3304L42.3493 15.9181L53.6637 58.1354L48.3862 59.5476L37.0745 17.3304Z" fill="#DC493F"/>
<path fill-rule="evenodd" clip-rule="evenodd" d="M8.125 10.8333C8.125 9.39671 8.69568 8.01896 9.7115 7.00314C10.7273 5.98731 12.1051 5.41663 13.5417 5.41663H18.9583C19.9442 5.41663 20.8704 5.67934 21.6667 6.14246C22.4896 5.66581 23.424 5.41539 24.375 5.41663H29.7917C31.7606 5.41663 33.4858 6.46746 34.4338 8.04101C35.0025 7.58601 35.6688 7.23934 36.4163 7.03892L41.6488 5.63871C42.3359 5.45439 43.0526 5.40724 43.758 5.49995C44.4634 5.59266 45.1436 5.82341 45.7597 6.17904C46.3759 6.53466 46.916 7.00818 47.3491 7.57256C47.7823 8.13693 48.1 8.78111 48.2842 9.4683L59.4967 51.3256C59.681 52.0127 59.7281 52.7295 59.6354 53.4348C59.5427 54.1402 59.312 54.8204 58.9564 55.4366C58.6007 56.0527 58.1272 56.5928 57.5628 57.026C56.9984 57.4591 56.3543 57.7768 55.6671 57.961L50.4346 59.3612C49.7474 59.5455 49.0307 59.5927 48.3254 59.5C47.62 59.4073 46.9398 59.1765 46.3236 58.8209C45.7074 58.4653 45.1673 57.9917 44.7342 57.4274C44.3011 56.863 43.9833 56.2188 43.7992 55.5316L35.2083 23.4623V54.1666C35.2083 55.6032 34.6377 56.981 33.6218 57.9968C32.606 59.0126 31.2283 59.5833 29.7917 59.5833H24.375C23.424 59.5845 22.4896 59.3341 21.6667 58.8575C20.8437 59.3341 19.9093 59.5845 18.9583 59.5833H13.5417C12.1051 59.5833 10.7273 59.0126 9.7115 57.9968C8.69568 56.981 8.125 55.6032 8.125 54.1666V10.8333ZM13.5417 10.8333H18.9583V54.1666H13.5417V10.8333ZM29.7917 54.1666H24.375V10.8333H29.7917V54.1666ZM37.8192 12.2714L43.049 10.8712L54.2669 52.7285L49.0344 54.1287L37.8192 12.2714Z" fill="white"/>
</g>
<defs>
<clipPath id="clip0_2092_921">
<rect width="65" height="65" fill="white"/>
</clipPath>
</defs>
</svg>
