<svg width="67" height="66" viewBox="0 0 67 66" fill="none" xmlns="http://www.w3.org/2000/svg">
<path d="M21.3283 16.2984C21.3283 13.2824 22.5636 10.39 24.7625 8.25743C26.9613 6.12484 29.9436 4.92676 33.0533 4.92676C36.163 4.92676 39.1453 6.12484 41.3441 8.25743C43.543 10.39 44.7783 13.2824 44.7783 16.2984C44.7783 19.3143 43.543 22.2067 41.3441 24.3393C39.1453 26.4719 36.163 27.67 33.0533 27.67C29.9436 27.67 26.9613 26.4719 24.7625 24.3393C22.5636 22.2067 21.3283 19.3143 21.3283 16.2984ZM31.0991 34.3034V65.5754L25.1878 62.7088C22.6351 61.4769 19.8749 60.6951 17.0291 60.4226L5.30412 59.2855C3.31331 59.0841 1.78662 57.4613 1.78662 55.5068V31.4605C1.78662 29.3639 3.53316 27.67 5.69495 27.67H9.39566C17.1635 27.67 24.7359 29.9917 31.0991 34.3034ZM35.0075 65.5754V34.3034C41.3707 29.9917 48.9431 27.67 56.7109 27.67H60.4116C62.5734 27.67 64.32 29.3639 64.32 31.4605V55.5068C64.32 57.4494 62.7933 59.0841 60.8025 59.2736L49.0775 60.4108C46.2439 60.6832 43.4714 61.465 40.9188 62.697L35.0075 65.5754Z" fill="#F076E4"/>
<path d="M21.3283 13.6227C21.3283 10.6068 22.5636 7.71436 24.7625 5.58177C26.9613 3.44918 29.9436 2.2511 33.0533 2.2511C36.163 2.2511 39.1453 3.44918 41.3441 5.58177C43.543 7.71436 44.7783 10.6068 44.7783 13.6227C44.7783 16.6387 43.543 19.5311 41.3441 21.6637C39.1453 23.7963 36.163 24.9943 33.0533 24.9943C29.9436 24.9943 26.9613 23.7963 24.7625 21.6637C22.5636 19.5311 21.3283 16.6387 21.3283 13.6227ZM31.0991 31.6278V62.8997L25.1878 60.0332C22.6351 58.8012 19.8749 58.0194 17.0291 57.747L5.30412 56.6098C3.31331 56.4084 1.78662 54.7856 1.78662 52.8311V28.7849C1.78662 26.6882 3.53316 24.9943 5.69495 24.9943H9.39566C17.1635 24.9943 24.7359 27.316 31.0991 31.6278ZM35.0075 62.8997V31.6278C41.3707 27.316 48.9431 24.9943 56.7109 24.9943H60.4116C62.5734 24.9943 64.32 26.6882 64.32 28.7849V52.8311C64.32 54.7738 62.7933 56.4084 60.8025 56.598L49.0775 57.7351C46.2439 58.0076 43.4714 58.7894 40.9188 60.0213L35.0075 62.8997Z" fill="white"/>
</svg>
